<?xml version="1.0" encoding="utf-8"?>
<!-- Generator: Adobe Illustrator 25.2.3, SVG Export Plug-In . SVG Version: 6.00 Build 0)  -->
<svg version="1.1" id="Layer_1" xmlns="http://www.w3.org/2000/svg" xmlns:xlink="http://www.w3.org/1999/xlink" x="0px" y="0px"
	 viewBox="0 0 256 256" style="enable-background:new 0 0 256 256;" xml:space="preserve">
<style type="text/css">
	.st0{fill:#091F42;}
	.st1{fill:#C2C9D1;}
	.st2{fill:#1E58B1;}
	.st3{fill:#3A70C4;}
</style>
<g id="icon-256x256.psd_1_">
	<rect class="st0" width="256" height="256"/>
	<g>
		<path class="st1" d="M81,161h2.2l8.1,20.1l8.1-20.1h2.2l-9.1,22.3h-2.4L81,161z"/>
		<path class="st1" d="M106,163c0-0.7,0.6-1.3,1.3-1.3c0.7,0,1.3,0.6,1.3,1.3c0,0.7-0.6,1.3-1.3,1.3C106.7,164.4,106,163.8,106,163z
			 M106.5,167.1h1.7v16.1h-1.7V167.1z"/>
		<path class="st1" d="M114.6,179.8c1,1.3,2.9,2.4,5.2,2.4c2.7,0,4.3-1.3,4.3-3.2c0-2.1-2.2-2.7-4.5-3.3c-2.7-0.7-5.6-1.4-5.6-4.5
			c0-2.5,2.1-4.5,5.7-4.5c2.8,0,4.6,1.1,5.8,2.4l-1,1.2c-0.9-1.3-2.7-2.1-4.8-2.1c-2.5,0-4,1.2-4,2.9c0,1.8,2.1,2.3,4.3,2.9
			c2.8,0.7,5.9,1.5,5.9,4.9c0,2.6-2,4.7-6,4.7c-2.6,0-4.6-0.8-6.2-2.5L114.6,179.8z"/>
		<path class="st1" d="M142.3,180.9c-1.3,1.5-3.5,2.8-5.8,2.8c-3.3,0-5.1-1.5-5.1-5.2v-11.4h1.7v11c0,3.1,1.6,4,3.9,4
			c2.1,0,4.2-1.2,5.2-2.7v-12.3h1.7v16.1h-1.7V180.9z"/>
		<path class="st1" d="M161,181.4c-1.4,1.6-3.2,2.3-5.5,2.3c-2.8,0-5.6-1.9-5.6-5.4c0-3.5,2.8-5.3,5.6-5.3c2.2,0,4,0.7,5.5,2.3V172
			c0-2.4-1.9-3.7-4.3-3.7c-2,0-3.6,0.7-5,2.4l-1-1.2c1.7-1.8,3.5-2.7,6.2-2.7c3.3,0,5.9,1.6,5.9,5.2v11.4H161V181.4z M161,176.5
			c-1.1-1.5-2.9-2.2-4.9-2.2c-2.7,0-4.4,1.7-4.4,4s1.7,4,4.4,4c1.9,0,3.7-0.7,4.9-2.2V176.5z"/>
		<path class="st1" d="M169.4,161h1.7v22.3h-1.7V161z"/>
		<path class="st1" d="M84.1,206h14.1v1.7H86v8.2h12v1.7H86v10.6h-1.9V206z"/>
		<path class="st1" d="M103.5,206h14.1v1.7h-12.2v8.2h12v1.7h-12v10.6h-1.9V206z"/>
		<path class="st1" d="M131.3,206h2.2l8.1,20.1l8.1-20.1h2.2l-9.1,22.3h-2.4L131.3,206z"/>
		<path class="st1" d="M157,206h14.1v1.7h-12.2v8.2h12v1.7h-12v8.8h12.2v1.7H157V206z"/>
	</g>
</g>
<g id="_x3C_Group_x3E__1_">
	<polygon class="st2" points="128,96.9 114.1,83 141.9,83 	"/>
	<polygon class="st3" points="128,69.1 141.9,83 114.1,83 	"/>
	<polyline class="st2" points="155.8,83 128,110.8 100.2,83 72.5,83 128,138.5 183.5,83 	"/>
	<polygon class="st3" points="128,55.2 128,27.5 183.5,83 155.8,83 	"/>
</g>
</svg>
